PathFileType	4	(X/Y/Z)	G:\Shared drives\HPL_Drive\Pi-Spi Study\20230118_AMCsubject1\Trimmed_left_horiz_add01_rotated.trc
DataRate	CameraRate	NumFrames	NumMarkers	Units	OrigDataRate	OrigDataStartFrame	OrigNumFrames
200.00	200.00	       9	35	mm	200.00	76	       200
Frame#	Time	C7			Sternum			r_AMC1			r_AMC2			r_AMC3			l_AMC1			l_AMC2			l_AMC3			PX			T8			r_humerous			r_elbow_medial			r_elbow_lateral			r_forearm			r_wrist_radius			r_wrist_ulna			r_MCP_1			r_MCP_3			l_humerous			l_elbow_medial			l_elbow_lateral			l_forearm			l_wrist_radius			l_wrist_ulna			l_MCP_1			l_MCP_3			r_ASIS			r_PSIS			l_ASIS			l_PSIS			r_IC			l_IC			TS			AI			AA			
		X1	Y1	Z1	X2	Y2	Z2	X3	Y3	Z3	X4	Y4	Z4	X5	Y5	Z5	X6	Y6	Z6	X7	Y7	Z7	X8	Y8	Z8	X9	Y9	Z9	X10	Y10	Z10	X11	Y11	Z11	X12	Y12	Z12	X13	Y13	Z13	X14	Y14	Z14	X15	Y15	Z15	X16	Y16	Z16	X17	Y17	Z17	X18	Y18	Z18	X19	Y19	Z19	X20	Y20	Z20	X21	Y21	Z21	X22	Y22	Z22	X23	Y23	Z23	X24	Y24	Z24	X25	Y25	Z25	X26	Y26	Z26	X27	Y27	Z27	X28	Y28	Z28	X29	Y29	Z29	X30	Y30	Z30	X31	Y31	Z31	X32	Y32	Z32	X33	Y33	Z33	X34	Y34	Z34	X35	Y35	Z35	

76	0.375	179.1165	1367.9857	-254.5868	314.7223	1321.1785	-227.707	178.4747	1324.2978	-85.3733	211.8852	1331.5738	-49.1056	230.2776	1366.1802	-72.6817	235.2354	1341.5187	-408.1983	280.6805	1363.9352	-418.1333	269.5815	1388.3455	-371.2379	392.9953	1132.6276	-214.9755	160.1595	1189.4453	-252.1551	296.4716	1149.4579	-27.4453	227.4762	1006.1102	-51.047	247.6408	1016.724	12	304.7067	862.0553	29.724	353.045	799.411	6.4912	307.273	792.9838	29.6816	376.4126	716.8438	16.5975	329.5745	712.9585	36.1959	419.5596	1329.923	-297.4616	529.9697	1239.2075	-264.0151	556.4736	1282.0382	-278.2029	674.033	1310.1914	-168.6588	711.6717	1327.4523	-103.0587	721.5127	1285.7052	-108.9433	770.915	1338.636	-53.65	777.1927	1295.8232	-53.735	386.1136	907.1403	-88.8947	191.7837	928.6873	-155.8004	366.644	894.5984	-345.3169	183.9107	922.6046	-259.2231	307.3459	971.9623	-54.5745	276.231	940.1992	-377.7824	146.2331	1296.6258	-387.762	169.5657	1200.0775	-403.9554	244.4774	1340.2722	-475.6209
77	0.38	179.1826	1368.0762	-254.6554	314.7445	1321.1788	-227.728	178.4947	1324.3073	-85.3565	211.888	1331.6174	-49.139	230.2788	1366.178	-72.6208	235.2674	1341.6663	-408.317	280.7429	1363.9104	-418.1237	269.6281	1388.361	-371.1941	393.0303	1132.6956	-214.9401	160.1838	1189.4448	-252.1687	296.482	1149.4841	-27.393	227.498	1006.1143	-51.0199	247.6526	1016.71	12.0022	304.7541	862.0494	29.7293	353.1009	799.3802	6.5288	307.3306	793.0036	29.6992	376.4164	716.8735	16.6441	329.5806	712.9422	36.186	419.5726	1329.9294	-297.4685	529.9972	1239.1426	-264.018	556.5	1282.0189	-278.186	674.0514	1310.1605	-168.6231	711.7214	1327.3972	-103.0321	721.5635	1285.5637	-108.8955	770.9379	1338.579	-53.6279	777.1942	1295.7307	-53.7163	386.1312	907.1669	-88.8848	191.7811	928.6926	-155.7922	366.6458	894.5967	-345.3133	183.9303	922.6043	-259.2164	307.3664	971.9763	-54.6089	276.286	940.1897	-377.7629	146.2829	1296.666	-387.7361	169.5862	1200.0858	-403.9805	244.5126	1340.2998	-475.6182
78	0.385	179.1538	1367.9829	-254.5535	314.7749	1321.1959	-227.6942	178.5282	1324.3385	-85.3399	211.9433	1331.5574	-49.0941	230.2881	1366.2231	-72.6288	235.3028	1341.7206	-408.2759	280.7452	1363.991	-418.1255	269.6697	1388.3662	-371.1766	393.1374	1132.6829	-214.9803	160.196	1189.4558	-252.176	296.5328	1149.4518	-27.4413	227.494	1006.131	-51.019	247.664	1016.7351	12.0308	304.76	862.062	29.7248	353.1512	799.4125	6.4805	307.3226	793.0005	29.6874	376.4413	716.8872	16.604	329.6299	712.9049	36.2211	419.6233	1329.8918	-297.3978	530.0234	1239.1058	-263.9941	556.546	1281.9468	-278.1657	674.0928	1310.0809	-168.618	711.7402	1327.3314	-103.0209	721.5441	1285.5685	-108.8608	770.971	1338.5198	-53.5957	777.2328	1295.6656	-53.6659	386.2104	907.1006	-88.888	191.5554	928.8234	-155.7785	366.6481	894.6132	-345.2372	183.9567	922.6002	-259.2208	307.3612	971.9606	-54.5794	276.3432	940.1516	-377.7331	146.3321	1296.7438	-387.7112	169.6149	1200.0952	-403.9641	244.5335	1340.3113	-475.5932
79	0.39	179.1905	1368.0004	-254.5508	314.8164	1321.1886	-227.6965	178.5729	1324.3549	-85.3171	212.1551	1331.3027	-49.3744	230.3185	1366.191	-72.5858	235.354	1341.7233	-408.2706	280.774	1364.0131	-418.0974	269.6949	1388.3723	-371.161	393.1468	1132.6816	-214.9647	160.2107	1189.4541	-252.1676	296.5797	1149.4719	-27.4079	227.5423	1006.1456	-51.0179	247.7181	1016.7237	12.046	304.8202	862.0589	29.7354	353.1761	799.3571	6.5228	307.4292	792.9861	29.6953	376.4614	716.848	16.6284	329.6729	712.9076	36.2417	419.6623	1329.8568	-297.4049	530.0208	1239.0791	-263.9644	556.5772	1281.9145	-278.1508	674.1223	1310.0419	-168.6082	711.7769	1327.2882	-102.9964	721.5843	1285.483	-108.8478	770.965	1338.4574	-53.5783	777.2396	1295.5962	-53.66	386.1925	907.0886	-88.8688	191.8226	928.6948	-155.7703	366.6798	894.5669	-345.2503	183.9632	922.6094	-259.1879	307.3938	971.9722	-54.5735	276.3612	940.189	-377.7115	146.3883	1296.6982	-387.7612	169.6298	1200.1096	-403.9708	244.6171	1340.3175	-475.6119
80	0.395	179.2138	1368.0051	-254.5356	314.8589	1321.2069	-227.6882	178.5848	1324.3496	-85.305	211.9979	1331.5832	-49.105	230.3693	1366.1527	-72.6044	235.3986	1341.7367	-408.2548	280.796	1364.0017	-417.9912	269.7471	1388.3728	-371.1261	393.1722	1132.6937	-214.9572	160.2408	1189.4507	-252.1841	296.5905	1149.4948	-27.3931	227.5633	1006.1434	-51.0003	247.7266	1016.74	12.0376	304.8711	862.0283	29.7403	353.1742	799.4191	6.5332	307.3715	793.0041	29.6883	376.5086	716.8401	16.6505	329.7545	712.8795	36.2137	419.6869	1329.8575	-297.3843	531.8298	1238.1291	-264.5037	556.5948	1281.8916	-278.1303	674.1378	1310.0127	-168.5835	711.7975	1327.2402	-102.973	721.606	1285.3806	-108.8454	771.0146	1338.4152	-53.5657	777.2836	1295.5243	-53.6571	386.1899	907.1574	-88.8148	191.5863	928.8235	-155.7856	366.7026	894.5712	-345.2071	183.9961	922.6144	-259.1927	307.4164	971.9518	-54.5811	276.3871	940.187	-377.7206	146.4093	1296.7666	-387.7559	169.6619	1200.1466	-404.0113	244.6365	1340.3473	-475.5654
81	0.4	179.2318	1368.0085	-254.5124	314.8624	1321.1996	-227.6805	178.6225	1324.3555	-85.3068	212.002	1331.6248	-49.0767	230.4469	1366.0863	-72.5726	235.4039	1341.7539	-408.2686	280.8171	1364.0613	-417.9758	269.7821	1388.3693	-371.1103	393.1674	1132.6747	-214.9429	160.2429	1189.4454	-252.1744	296.6706	1149.4285	-27.4193	227.5791	1006.1404	-50.9947	247.7433	1016.7167	12.0513	304.8314	862.0892	29.7645	353.2777	799.2939	6.4961	307.3791	793.0529	29.6946	376.54	716.8406	16.6387	329.7292	712.9068	36.2039	419.6836	1329.8699	-297.3746	530.0965	1238.9601	-263.9079	556.6246	1281.8572	-278.1297	674.1772	1309.9535	-168.5724	711.8029	1327.1912	-102.9512	721.62	1285.3389	-108.8235	771.0179	1338.3898	-53.5274	777.2388	1295.4836	-53.5978	386.191	907.1124	-88.7852	191.8516	928.7094	-155.778	366.7291	894.5571	-345.2219	183.9984	922.6139	-259.176	307.4846	971.8886	-54.5648	276.4486	940.146	-377.7316	146.4416	1296.7902	-387.7199	169.6536	1200.1438	-403.9959	244.6627	1340.3278	-475.5627
82	0.405	179.2673	1368.0109	-254.5155	314.8921	1321.2079	-227.6603	178.6595	1324.3356	-85.2994	212.2713	1331.2872	-49.3491	230.4642	1366.0959	-72.575	235.4505	1341.772	-408.247	280.75	1364.119	-417.9121	269.7926	1388.3738	-371.092	393.2711	1132.6747	-214.9887	160.2705	1189.4708	-252.1772	296.724	1149.4463	-27.455	227.6033	1006.1403	-50.9718	247.811	1016.7332	12.0612	304.8912	862.0516	29.757	353.3235	799.3391	6.4798	307.4424	793.0112	29.6763	376.6103	716.8538	16.6333	329.7493	712.9779	36.2147	419.7487	1329.8243	-297.3799	530.0739	1238.9594	-263.9124	556.6305	1281.8467	-278.0809	674.1941	1309.9084	-168.5576	711.8328	1327.1345	-102.9272	721.6542	1285.3038	-108.8142	771.0612	1338.324	-53.5023	777.2567	1295.4691	-53.6138	386.2501	907.1196	-88.7795	191.6256	928.8034	-155.7692	366.7394	894.5817	-345.1742	184.0114	922.6096	-259.1757	307.4515	971.9017	-54.5669	276.4262	940.1649	-377.6913	146.4367	1296.8103	-387.7183	169.6579	1200.1746	-403.9847	244.6884	1340.3635	-475.5503
83	0.41	179.301	1368.0173	-254.5149	314.9359	1321.194	-227.6741	178.6797	1324.3592	-85.2893	212.086	1331.5787	-49.0488	230.5102	1366.0665	-72.5751	235.4838	1341.7889	-408.2304	280.7896	1364.1392	-417.9305	269.8301	1388.3936	-371.0601	393.2372	1132.7033	-214.9733	160.2853	1189.4492	-252.1829	296.7119	1149.46	-27.374	227.6455	1006.1362	-50.9787	247.8332	1016.7269	12.047	304.9386	862.0622	29.7836	353.3475	799.2907	6.5107	307.4476	793.0319	29.7052	376.6011	716.8792	16.663	329.7799	712.932	36.2427	419.7372	1329.8249	-297.3795	531.9026	1237.9972	-264.4479	556.6596	1281.824	-278.0843	674.2133	1309.8809	-168.5376	711.8533	1327.1012	-102.9031	721.6781	1285.2722	-108.7777	771.0819	1338.2942	-53.4669	777.2916	1295.3855	-53.5574	386.2761	907.0728	-88.7692	191.6193	928.8209	-155.7591	366.7426	894.5366	-345.1941	184.055	922.6119	-259.1819	307.5189	971.8686	-54.5784	276.4789	940.1254	-377.6564	146.4769	1296.8027	-387.6874	169.6852	1200.1883	-403.9867	244.7229	1340.3189	-475.5484
84	0.415	179.4023	1368.1193	-254.609	314.9932	1321.2159	-227.6642	178.7079	1324.3584	-85.2796	212.3461	1331.2799	-49.2957	230.4936	1366.1384	-72.558	235.5383	1341.8092	-408.2122	280.8385	1364.1158	-417.9078	269.8646	1388.3934	-371.0464	393.3302	1132.6713	-214.9984	160.3027	1189.4719	-252.1786	296.7765	1149.4658	-27.4105	227.659	1006.1346	-50.9378	247.8633	1016.6884	12.0815	304.9663	862.0638	29.791	353.3825	799.3507	6.4873	307.4597	793.033	29.6921	376.6563	716.8527	16.6502	329.8213	712.9448	36.2072	419.8002	1329.8258	-297.3805	530.1011	1238.9021	-263.8748	556.6727	1281.8229	-278.0431	674.23	1309.8632	-168.5068	711.8777	1327.0895	-102.8894	721.6669	1285.2419	-108.7652	771.1241	1338.2595	-53.4631	777.2994	1295.3689	-53.5596	386.2606	907.097	-88.7163	191.6469	928.8169	-155.7726	366.8185	894.558	-345.195	184.0743	922.6179	-259.1713	307.5216	971.889	-54.569	276.4855	940.1226	-377.663	146.4427	1297.0466	-387.8362	169.6958	1200.2178	-403.9768	244.7549	1340.3501	-475.542
